<svg width="25" height="23" viewBox="0 0 25 23" fill="none" xmlns="http://www.w3.org/2000/svg">
<path d="M1.2652 4.02811C-1.27103 8.42926 0.341298 15.1082 3.14595 19.158C4.54593 21.1826 5.96331 23 7.90464 23C7.9412 23 7.97794 22.9993 8.01549 22.9978C8.92756 22.9614 9.58669 22.6806 10.224 22.4093C10.9396 22.1043 11.6795 21.7891 12.8401 21.7891C13.9442 21.7891 14.6488 22.0941 15.3304 22.389C16.002 22.6796 16.6938 22.9801 17.7159 22.961C19.9027 22.9203 21.2453 20.9591 22.4299 19.2291C23.6659 17.4227 24.286 15.6688 24.4953 14.9986L24.5037 14.972C24.5434 14.8528 24.4872 14.7228 24.3731 14.6704C24.3699 14.6689 24.3583 14.6641 24.355 14.6627C23.97 14.5052 20.5921 13.0067 20.5566 8.92239C20.5236 5.60411 23.0905 3.84688 23.6054 3.52837L23.6294 3.51343C23.6853 3.47751 23.7242 3.42056 23.7372 3.35546C23.7505 3.29042 23.7367 3.22274 23.6994 3.16808C21.9275 0.575068 19.2117 0.184307 18.1184 0.137314C17.9597 0.121494 17.7959 0.113525 17.6314 0.113525C16.3473 0.113525 15.1171 0.598564 14.1287 0.988271C13.4465 1.25727 12.8573 1.4896 12.4507 1.4896C11.9941 1.4896 11.4015 1.2544 10.7152 0.982178C9.79751 0.617959 8.75735 0.205225 7.6562 0.205225C7.62995 0.205225 7.60405 0.205518 7.57862 0.205986C5.01825 0.243604 2.59897 1.70839 1.2652 4.02811Z" fill="black"/>
</svg>
