<svg width="36" height="44" viewBox="0 0 36 44" fill="none" xmlns="http://www.w3.org/2000/svg">
<path d="M1.85563 16.1746C-1.86417 22.6296 0.50057 32.4254 4.61405 38.365C6.66736 41.3345 8.74619 44 11.5935 44C11.6471 44 11.701 43.999 11.7561 43.9968C13.0938 43.9435 14.0605 43.5316 14.9952 43.1336C16.0447 42.6864 17.1299 42.224 18.8321 42.224C20.4515 42.224 21.485 42.6714 22.4846 43.1038C23.4696 43.53 24.4842 43.9709 25.9833 43.9428C29.1906 43.883 31.1598 41.0067 32.8972 38.4693C34.71 35.82 35.6195 33.2476 35.9264 32.2646L35.9388 32.2255C35.997 32.0508 35.9145 31.8601 35.7472 31.7832C35.7425 31.7811 35.7256 31.774 35.7207 31.772C35.1561 31.541 30.2018 29.3432 30.1497 23.3528C30.1012 18.486 33.8661 15.9088 34.6213 15.4416L34.6565 15.4197C34.7384 15.367 34.7955 15.2835 34.8146 15.188C34.8341 15.0926 34.8138 14.9934 34.7591 14.9132C32.1604 11.1101 28.1772 10.537 26.5737 10.4681C26.3409 10.4449 26.1007 10.4332 25.8594 10.4332C23.9761 10.4332 22.1717 11.1446 20.7221 11.7161C19.7215 12.1107 18.8573 12.4514 18.2611 12.4514C17.5913 12.4514 16.7221 12.1065 15.7156 11.7072C14.3697 11.173 12.8441 10.5677 11.2291 10.5677C11.1906 10.5677 11.1526 10.5681 11.1153 10.5688C7.3601 10.6239 3.81183 12.7723 1.85563 16.1746Z" fill="#D6D5D8"/>
<path d="M26.5768 0.000273373C24.3027 0.092914 21.575 1.49266 19.9444 3.40245C18.5587 5.00768 17.2051 7.68403 17.5618 10.3817C17.5842 10.5505 17.7215 10.6808 17.8913 10.6939C18.0446 10.7058 18.2016 10.7119 18.3574 10.7121C20.5811 10.7121 22.9798 9.48201 24.6177 7.50124C26.3418 5.40969 27.2136 2.72561 26.9499 0.321336C26.9295 0.132875 26.7634 -0.00703131 26.5768 0.000273373Z" fill="#D6D5D8"/>
</svg>

