<svg width="35" height="35" viewBox="0 0 35 35" fill="none" xmlns="http://www.w3.org/2000/svg">
<rect width="35" height="35" rx="7" fill="url(#paint0_linear_64_488)"/>
<path d="M25.1172 22.2827H21.4062C20.8669 22.2827 20.4297 21.8551 20.4297 21.3276C20.4297 20.8 20.8669 20.3724 21.4062 20.3724H25.1172C26.7326 20.3724 28.0469 19.0869 28.0469 17.5069C28.0469 15.8733 26.8713 14.6414 25.3125 14.6414C24.7731 14.6414 24.3359 14.2137 24.3359 13.6862C24.3359 12.1062 23.0217 10.8207 21.4062 10.8207C21.0896 10.8207 20.7665 10.8803 20.4187 11.003C20.0271 11.1412 19.5891 11.0214 19.3276 10.7047C18.3859 9.56439 17.0079 8.91034 15.5469 8.91034C12.8544 8.91034 10.6641 11.0528 10.6641 13.6862C10.6641 14.2137 10.2269 14.6414 9.6875 14.6414C8.12866 14.6414 6.95312 15.8733 6.95312 17.5069C6.95312 19.0869 8.26738 20.3724 9.88281 20.3724H13.5938C14.1331 20.3724 14.5703 20.8 14.5703 21.3276C14.5703 21.8551 14.1331 22.2827 13.5938 22.2827H9.88281C7.19038 22.2827 5 20.1403 5 17.5069C5 16.2313 5.46465 15.0408 6.30825 14.1544C6.97212 13.4569 7.82456 12.9975 8.76841 12.8171C9.20542 9.53961 12.0787 7 15.5469 7C17.3826 7 19.1208 7.72913 20.4077 9.02023C20.7443 8.94716 21.0783 8.91034 21.4062 8.91034C23.7937 8.91034 25.7864 10.5949 26.2072 12.8126C27.1607 12.9897 28.0222 13.4509 28.6917 14.1544C29.5354 15.0408 30 16.2313 30 17.5069C30 20.1403 27.8096 22.2827 25.1172 22.2827Z" fill="white"/>
<path d="M21.1202 23.8997C20.7388 23.5267 20.1205 23.5267 19.7391 23.8997L18.4765 25.1347V15.5965C18.4765 15.069 18.0393 14.6414 17.5 14.6414C16.9606 14.6414 16.5234 15.069 16.5234 15.5965V25.1347L15.2609 23.8997C14.8795 23.5267 14.2612 23.5267 13.8798 23.8997C13.4985 24.2727 13.4984 24.8775 13.8798 25.2505L16.1189 27.4406C16.4931 27.8067 16.9826 27.9924 17.4741 27.9987C17.4828 27.9989 17.4912 28 17.5 28C17.5088 28 17.5173 27.9989 17.5259 27.9987C18.0175 27.9924 18.507 27.8067 18.8812 27.4406L21.1203 25.2505C21.5016 24.8775 21.5015 24.2727 21.1202 23.8997Z" fill="white"/>
<defs>
<linearGradient id="paint0_linear_64_488" x1="0" y1="0" x2="35" y2="35" gradientUnits="userSpaceOnUse">
<stop stop-color="#5200FF"/>
<stop offset="0.35" stop-color="#772BFF"/>
<stop offset="1" stop-color="#010003"/>
</linearGradient>
</defs>
</svg>
