<svg width="60" height="51" viewBox="0 0 60 51" fill="none" xmlns="http://www.w3.org/2000/svg">
<path d="M48.2812 36.8786H39.375C38.0805 36.8786 37.0312 35.8523 37.0312 34.5862C37.0312 33.3201 38.0805 32.2938 39.375 32.2938H48.2812C52.1583 32.2938 55.3125 29.2086 55.3125 25.4165C55.3125 21.4958 52.4912 18.5393 48.75 18.5393C47.4555 18.5393 46.4062 17.513 46.4062 16.2469C46.4062 12.4548 43.252 9.36965 39.375 9.36965C38.6149 9.36965 37.8396 9.51281 37.0048 9.80727C36.0649 10.1389 35.0139 9.8514 34.3862 9.09124C32.1262 6.35456 28.819 4.78483 25.3125 4.78483C18.8507 4.78483 13.5938 9.92671 13.5938 16.2469C13.5938 17.513 12.5445 18.5393 11.25 18.5393C7.50879 18.5393 4.6875 21.4958 4.6875 25.4165C4.6875 29.2086 7.84172 32.2938 11.7188 32.2938H20.625C21.9195 32.2938 22.9688 33.3201 22.9688 34.5862C22.9688 35.8523 21.9195 36.8786 20.625 36.8786H11.7188C5.25691 36.8786 0 31.7367 0 25.4165C0 22.3552 1.11516 19.4979 3.1398 17.3705C4.73309 15.6966 6.77895 14.5941 9.04418 14.1611C10.093 6.29507 16.9889 0.200012 25.3125 0.200012C29.7183 0.200012 33.8898 1.94992 36.9785 5.04857C37.7864 4.8732 38.5879 4.78483 39.375 4.78483C45.1048 4.78483 49.8873 8.82773 50.8972 14.1502C53.1858 14.5753 55.2532 15.6823 56.8602 17.3706C58.8848 19.4979 60 22.3552 60 25.4165C60 31.7367 54.7431 36.8786 48.2812 36.8786Z" fill="#0038FF"/>
<path d="M38.6884 40.7594C37.7731 39.8641 36.2891 39.8641 35.3739 40.7594L32.3437 43.7232V20.8317C32.3437 19.5656 31.2944 18.5393 29.9999 18.5393C28.7055 18.5393 27.6562 19.5656 27.6562 20.8317V43.7232L24.6261 40.7594C23.7107 39.8641 22.2268 39.8642 21.3115 40.7594C20.3963 41.6546 20.3961 43.1061 21.3114 44.0013L26.6853 49.2576C27.5834 50.136 28.7582 50.5817 29.9378 50.5969C29.9587 50.5975 29.979 50.6 30 50.6C30.0211 50.6 30.0414 50.5975 30.0623 50.5969C31.2419 50.5818 32.4167 50.136 33.3148 49.2576L38.6887 44.0013C39.6038 43.1061 39.6037 41.6546 38.6884 40.7594Z" fill="#0038FF"/>
</svg>
