<svg width="50" height="50" viewBox="0 0 50 50" fill="none" xmlns="http://www.w3.org/2000/svg">
<path d="M2.23803 31.7708C2.22975 32.5052 2.41545 33.2414 2.79515 33.8996L7.87518 42.7068C8.61926 43.9968 9.99525 44.7916 11.4845 44.7916H38.5155C40.0047 44.7916 41.3807 43.9968 42.1248 42.7068L47.2048 33.8996C47.5845 33.2413 47.7702 32.5052 47.762 31.7708H2.23803Z" fill="#4285F4"/>
<path d="M40.6163 44.2234L17.8291 4.7548C18.4638 4.37628 19.1986 4.16675 19.9632 4.16675H30.0368C31.5254 4.16675 32.9009 4.96091 33.6452 6.25008L47.204 29.7346C47.948 31.0232 47.9483 32.6108 47.2048 33.8998L42.1248 42.7069C41.7561 43.3462 41.2322 43.8638 40.6163 44.2234Z" fill="#FBBC04"/>
<path d="M32.1709 4.7548C31.5362 4.37628 30.8014 4.16675 30.0368 4.16675H19.9632C18.4746 4.16675 17.0991 4.96091 16.3548 6.25008L2.79599 29.7346C2.05199 31.0232 2.05167 32.6108 2.79515 33.8998L7.87518 42.7069C8.2439 43.3462 8.76778 43.8638 9.38373 44.2234L32.1709 4.7548Z" fill="#34A853"/>
<path d="M47.762 31.7708C47.7702 32.5052 47.5845 33.2413 47.2048 33.8996L42.1248 42.7068C41.7561 43.346 41.2322 43.8637 40.6162 44.2233L33.4268 31.7708H47.762Z" fill="#EA4335"/>
<path d="M32.1709 4.75481C31.5362 4.37628 30.8014 4.16675 30.0368 4.16675H19.9632C19.1986 4.16675 18.4638 4.37628 17.8291 4.7548L25 17.1752L32.1709 4.75481Z" fill="#188038"/>
<path d="M2.23803 31.7708C2.22975 32.5052 2.41545 33.2414 2.79514 33.8996L7.87518 42.7068C8.2439 43.346 8.76778 43.8637 9.38373 44.2233L16.5732 31.7708H2.23803Z" fill="#1967D2"/>
</svg>
