<svg width="50" height="50" viewBox="0 0 50 50" fill="none" xmlns="http://www.w3.org/2000/svg">
<path d="M25.5101 20.4546V30.1364H39.2393C38.6364 33.25 36.8273 35.8865 34.114 37.6592L42.3932 43.9547C47.217 39.5912 50 33.1821 50 25.5685C50 23.7958 49.8377 22.0911 49.5361 20.4549L25.5101 20.4546Z" fill="#4285F4"/>
<path d="M11.2133 29.7585L9.34603 31.1593L2.73639 36.2047C6.93401 44.3637 15.5374 50.0001 25.5096 50.0001C32.3972 50.0001 38.1718 47.7729 42.3927 43.9548L34.1134 37.6593C31.8407 39.1593 28.9417 40.0684 25.5096 40.0684C18.8769 40.0684 13.2415 35.6821 11.2238 29.773L11.2133 29.7585Z" fill="#34A853"/>
<path d="M2.73638 13.7954C0.997124 17.1589 0 20.9544 0 24.9998C0 29.0452 0.997124 32.8407 2.73638 36.2042C2.73638 36.2267 11.2246 29.7496 11.2246 29.7496C10.7144 28.2496 10.4128 26.6588 10.4128 24.9995C10.4128 23.3402 10.7144 21.7494 11.2246 20.2494L2.73638 13.7954Z" fill="#FBBC05"/>
<path d="M25.5101 9.95452C29.2671 9.95452 32.6066 11.2272 35.2736 13.6818L42.5788 6.5228C38.1493 2.47742 32.398 0 25.5101 0C15.5379 0 6.934 5.61362 2.73637 13.7954L11.2243 20.25C13.2418 14.3408 18.8774 9.95452 25.5101 9.95452Z" fill="#EA4335"/>
</svg>
