<svg width="150" height="150" viewBox="0 0 150 150" fill="none" xmlns="http://www.w3.org/2000/svg">
<g filter="url(#filter0_d_694_294)">
<rect width="150" height="150" rx="28.125" fill="#5200FF"/>
<path d="M97.873 60.1564V22.9999H49.5129L63.6195 34.7304L37.8128 55.6501C33.2349 59.3612 29.6554 63.7148 27.1744 68.5899C24.6933 73.4651 23.4353 78.6161 23.4353 83.9001V105.926H30.7774C30.7774 96.9933 35.2121 88.2692 42.9445 81.9903L82.5066 49.8646L97.873 60.1564Z" fill="url(#paint0_linear_694_294)" fill-opacity="0.8"/>
<path d="M119.217 43.199C119.217 52.1314 114.782 60.8555 107.05 67.1344L67.488 99.2601L52.1213 88.9684V126.125H100.481L86.3748 114.394L112.181 93.4746C116.759 89.7635 120.339 85.4099 122.82 80.5349C125.301 75.6596 126.559 70.5086 126.559 65.2246V43.199H119.217Z" fill="url(#paint1_linear_694_294)" fill-opacity="0.8"/>
<path d="M42.353 42.1871V34.3121H73.6421V42.1871H62.814V70.3121H53.1812V42.1871H42.353ZM76.3359 42.1871V34.3121H107.625V42.1871H96.7969V70.3121H87.1641V42.1871H76.3359ZM26.5393 114.312V78.3121H42.0784C44.7502 78.3121 47.0881 78.8394 49.092 79.8941C51.0959 80.9488 52.6545 82.4312 53.7678 84.3414C54.8811 86.2515 55.4377 88.4839 55.4377 91.0386C55.4377 93.6168 54.8635 95.8492 53.7151 97.7359C52.5784 99.6226 50.9788 101.076 48.9163 102.095C46.8655 103.115 44.469 103.625 41.7268 103.625H32.4456V96.0308H39.7581C40.9065 96.0308 41.885 95.8316 42.6936 95.4332C43.5139 95.023 44.1409 94.4429 44.5745 93.6929C45.0198 92.9429 45.2424 92.0582 45.2424 91.0386C45.2424 90.0074 45.0198 89.1285 44.5745 88.4019C44.1409 87.6636 43.5139 87.1011 42.6936 86.7144C41.885 86.316 40.9065 86.1168 39.7581 86.1168H36.3127V114.312H26.5393ZM63.8796 114.312H53.3328L65.2156 78.3121H78.575L90.4578 114.312H79.9109L72.0359 88.2261H71.7546L63.8796 114.312ZM61.9109 100.109H81.739V107.421H61.9109V100.109ZM88.7747 78.3121H99.6731L106.704 92.9371H106.986L114.017 78.3121H124.915L111.697 102.992V114.312H101.993V102.992L88.7747 78.3121Z" fill="white"/>
</g>
<defs>
<filter id="filter0_d_694_294" x="-2.92969" y="-2.34375" width="158.203" height="158.203" filterUnits="userSpaceOnUse" color-interpolation-filters="sRGB">
<feFlood flood-opacity="0" result="BackgroundImageFix"/>
<feColorMatrix in="SourceAlpha" type="matrix" values="0 0 0 0 0 0 0 0 0 0 0 0 0 0 0 0 0 0 127 0" result="hardAlpha"/>
<feMorphology radius="1.75781" operator="dilate" in="SourceAlpha" result="effect1_dropShadow_694_294"/>
<feOffset dx="1.17188" dy="1.75781"/>
<feGaussianBlur stdDeviation="1.17188"/>
<feComposite in2="hardAlpha" operator="out"/>
<feColorMatrix type="matrix" values="0 0 0 0 0 0 0 0 0 0 0 0 0 0 0 0 0 0 0.3 0"/>
<feBlend mode="normal" in2="BackgroundImageFix" result="effect1_dropShadow_694_294"/>
<feBlend mode="normal" in="SourceGraphic" in2="effect1_dropShadow_694_294" result="shape"/>
</filter>
<linearGradient id="paint0_linear_694_294" x1="97.398" y1="22.757" x2="33.6705" y2="110.691" gradientUnits="userSpaceOnUse">
<stop stop-color="#FFC55B"/>
<stop offset="0.495" stop-color="#FFA500"/>
<stop offset="1" stop-color="#6A4500"/>
</linearGradient>
<linearGradient id="paint1_linear_694_294" x1="126.084" y1="42.956" x2="62.356" y2="130.89" gradientUnits="userSpaceOnUse">
<stop stop-color="#FFC55B"/>
<stop offset="0.495" stop-color="#FFA500"/>
<stop offset="1" stop-color="#6A4500"/>
</linearGradient>
</defs>
</svg>
