<svg width="54" height="54" viewBox="0 0 54 54" fill="none" xmlns="http://www.w3.org/2000/svg">
<g filter="url(#filter0_d_12_86)">
<rect width="50" height="50" rx="10" fill="url(#paint0_linear_12_86)"/>
<path d="M33.3182 19.7614V6.25H15.7328L20.8625 10.5156L11.4782 18.1228C9.81348 19.4723 8.51185 21.0554 7.60966 22.8281C6.70747 24.601 6.25 26.4741 6.25 28.3955V36.4048H8.91985C8.91985 33.1567 10.5325 29.9843 13.3442 27.701L27.7305 16.019L33.3182 19.7614Z" fill="url(#paint1_linear_12_86)" fill-opacity="0.8"/>
<path d="M41.0802 13.5952C41.0802 16.8433 39.4675 20.0157 36.6558 22.299L22.2696 33.981L16.6817 30.2386V43.7501H34.2672L29.1375 39.4844L38.5217 31.8772C40.1864 30.5277 41.488 28.9446 42.3902 27.1718C43.2924 25.399 43.7499 23.5259 43.7499 21.6045V13.5952H41.0802Z" fill="url(#paint2_linear_12_86)" fill-opacity="0.8"/>
<path d="M19.4014 23.2197C18.2148 23.2197 17.5381 22.5166 17.5381 21.2686V13.2881H15.666C14.6816 13.2881 14.0225 12.752 14.0225 11.8027C14.0225 10.8535 14.6641 10.3174 15.666 10.3174H23.1367C24.1387 10.3174 24.7803 10.8535 24.7803 11.8027C24.7803 12.752 24.1211 13.2881 23.1367 13.2881H21.2646V21.2686C21.2646 22.5166 20.5879 23.2197 19.4014 23.2197ZM30.5986 23.2197C29.4121 23.2197 28.7354 22.5166 28.7354 21.2686V13.2881H26.8633C25.8789 13.2881 25.2197 12.752 25.2197 11.8027C25.2197 10.8535 25.8613 10.3174 26.8633 10.3174H34.334C35.3359 10.3174 35.9775 10.8535 35.9775 11.8027C35.9775 12.752 35.3184 13.2881 34.334 13.2881H32.4619V21.2686C32.4619 22.5166 31.7852 23.2197 30.5986 23.2197ZM10.2959 39.2197C9.10938 39.2197 8.43262 38.5166 8.43262 37.2686V28.2686C8.43262 27.0205 9.10938 26.3174 10.2959 26.3174H14.2246C17.0459 26.3174 18.9443 28.1191 18.9443 30.9404C18.9443 33.7354 16.9316 35.5371 13.9697 35.5371H12.1592V37.2686C12.1592 38.5166 11.4824 39.2197 10.2959 39.2197ZM12.1592 32.7861H13.2051C14.4443 32.7861 15.1826 32.1621 15.1826 30.9492C15.1826 29.7451 14.4443 29.1211 13.2314 29.1211H12.1592V32.7861ZM20.4912 39.2197C19.3047 39.2197 18.5928 38.543 18.5928 37.418C18.5928 37.0928 18.6895 36.6182 18.8564 36.1699L21.6953 28.3301C22.2402 26.792 23.1631 26.0977 24.6484 26.0977C26.2393 26.0977 27.1533 26.7656 27.7246 28.3301L30.5898 36.1699C30.7656 36.6533 30.8359 37.0049 30.8359 37.4092C30.8359 38.4639 30.0537 39.2197 28.9727 39.2197C27.874 39.2197 27.3027 38.7188 26.9863 37.4883L26.7666 36.627H22.6357L22.416 37.4268C22.0645 38.7012 21.502 39.2197 20.4912 39.2197ZM23.3389 33.8496H25.9844L24.666 29.2441H24.5957L23.3389 33.8496ZM35.9863 39.2197C34.7998 39.2197 34.123 38.5166 34.123 37.2686V34.9834L30.4844 29.1738C30.2295 28.7607 30.0977 28.3213 30.0977 27.8906C30.0977 26.8535 30.8975 26.0977 31.9961 26.0977C32.8135 26.0977 33.2529 26.4053 33.7539 27.3281L35.9951 31.459H36.0654L38.3154 27.3193C38.79 26.4492 39.2822 26.0977 40.0293 26.0977C41.0928 26.0977 41.875 26.8447 41.875 27.8555C41.875 28.3037 41.7432 28.7344 41.4795 29.1562L37.8496 34.9834V37.2686C37.8496 38.5166 37.1729 39.2197 35.9863 39.2197Z" fill="white"/>
</g>
<defs>
<filter id="filter0_d_12_86" x="0" y="0" width="54" height="54" filterUnits="userSpaceOnUse" color-interpolation-filters="sRGB">
<feFlood flood-opacity="0" result="BackgroundImageFix"/>
<feColorMatrix in="SourceAlpha" type="matrix" values="0 0 0 0 0 0 0 0 0 0 0 0 0 0 0 0 0 0 127 0" result="hardAlpha"/>
<feOffset dx="2" dy="2"/>
<feGaussianBlur stdDeviation="1"/>
<feComposite in2="hardAlpha" operator="out"/>
<feColorMatrix type="matrix" values="0 0 0 0 0 0 0 0 0 0 0 0 0 0 0 0 0 0 0.4 0"/>
<feBlend mode="normal" in2="BackgroundImageFix" result="effect1_dropShadow_12_86"/>
<feBlend mode="normal" in="SourceGraphic" in2="effect1_dropShadow_12_86" result="shape"/>
</filter>
<linearGradient id="paint0_linear_12_86" x1="0" y1="0" x2="50" y2="50" gradientUnits="userSpaceOnUse">
<stop stop-color="#5200FF"/>
<stop offset="0.35" stop-color="#772BFF"/>
<stop offset="1" stop-color="#010003"/>
</linearGradient>
<linearGradient id="paint1_linear_12_86" x1="33.1455" y1="6.16166" x2="9.97189" y2="38.1377" gradientUnits="userSpaceOnUse">
<stop stop-color="#FFC55B"/>
<stop offset="0.495" stop-color="#FFA500"/>
<stop offset="1" stop-color="#6A4500"/>
</linearGradient>
<linearGradient id="paint2_linear_12_86" x1="43.5772" y1="13.5068" x2="20.4034" y2="45.4828" gradientUnits="userSpaceOnUse">
<stop stop-color="#FFC55B"/>
<stop offset="0.495" stop-color="#FFA500"/>
<stop offset="1" stop-color="#6A4500"/>
</linearGradient>
</defs>
</svg>
