<svg width="256" height="256" viewBox="0 0 256 256" fill="none" xmlns="http://www.w3.org/2000/svg">
<path d="M128 30V50H108V30H128ZM108 147.5V176H128V147.5H108ZM168 256V236H148V216H128V256H168ZM208 107.5H148V127.5H208V107.5ZM208 147.5H236V127.5H208V147.5ZM208 176V196H256V147.5H236V176H208ZM148 0H128V30H148V0ZM128 90H148V50H128V70H108V127.5H128V90ZM0 107.5V147.5H20V127.5H50V107.5H0ZM148 147.5V127.5H128V147.5H148ZM188 167.5H208V147.5H188V167.5ZM236 127.5H256V107.5H236V127.5ZM168 147.5H148V176H128V196H168V147.5ZM108 216H128V196H108V216ZM168 196V216H208V196H168ZM228 236V216H208V236H228ZM256 256V236H228V256H256ZM188 256H208V236H188V256ZM90 127.5V107.5H70V127.5H50V147.5H108V127.5H90ZM90 90H0V0H90V90ZM70 20H20V70H70V20ZM55 35H35V55H55V35ZM256 0V90H166V0H256ZM236 20H186V70H236V20ZM221 35H201V55H221V35ZM0 166H90V256H0V166ZM20 236H70V186H20V236ZM35 221H55V201H35V221Z" fill="black"/>
</svg>
