<svg width="40" height="44" viewBox="0 0 40 44" fill="none" xmlns="http://www.w3.org/2000/svg">
<path d="M30.8727 15.0926C25.7553 12.2337 17.5416 7.64302 4.80151 0.518023C3.94257 -0.0485629 2.95432 -0.122813 2.10046 0.165851L23.9589 21.9983L30.8727 15.0926Z" fill="#32BBFF"/>
<path d="M2.10049 0.165853C1.94046 0.219993 1.78473 0.285306 1.63579 0.364197C0.692879 0.873636 0 1.85393 0 3.09375V40.9029C0 42.1427 0.692793 43.123 1.63579 43.6324C1.78447 43.7112 1.94011 43.7768 2.09998 43.8312L23.9589 21.9983L2.10049 0.165853Z" fill="#32BBFF"/>
<path d="M23.9589 21.9986L2.09998 43.8314C2.95409 44.1223 3.94234 44.0537 4.80154 43.4788C17.1567 36.5686 25.2778 32.0323 30.4544 29.1491C30.5986 29.0682 30.7398 28.9892 30.8793 28.9109L23.9589 21.9986Z" fill="#32BBFF"/>
<path d="M0 21.9984V40.9029C0 42.1427 0.692792 43.123 1.63579 43.6324C1.78446 43.7112 1.94011 43.7767 2.09997 43.8312L23.9589 21.9984H0Z" fill="#2C9FD9"/>
<path d="M4.80155 0.518024C3.78155 -0.154695 2.57871 -0.135531 1.6358 0.364282L23.6271 22.3296L30.8727 15.0926C25.7553 12.2337 17.5416 7.64302 4.80155 0.518024Z" fill="#29CC5E"/>
<path d="M23.6273 21.6671L1.6358 43.6324C2.5788 44.1321 3.78155 44.161 4.80155 43.4786C17.1567 36.5684 25.2778 32.0321 30.4545 29.1489C30.5986 29.068 30.7398 28.9889 30.8793 28.9106L23.6273 21.6671Z" fill="#D93F21"/>
<path d="M40 21.9983C40 20.9507 39.4708 19.8935 38.4219 19.3073C38.4219 19.3073 36.4602 18.214 30.4475 14.8549L23.2957 21.9983L30.4545 29.1487C36.4012 25.8138 38.4218 24.6893 38.4218 24.6893C39.4708 24.1031 40 23.0459 40 21.9983Z" fill="#FFD500"/>
<path d="M38.4219 24.6894C39.4708 24.1031 40 23.0459 40 21.9984H23.2957L30.4545 29.1488C36.4013 25.8139 38.4219 24.6894 38.4219 24.6894Z" fill="#FFAA00"/>
</svg>

