<svg width="40" height="40" viewBox="0 0 40 40" fill="none" xmlns="http://www.w3.org/2000/svg">
<path d="M39.9999 24.6094V29.0625C39.9999 29.9256 39.3005 30.625 38.4374 30.625H34.0624C33.1994 30.625 32.4999 29.9256 32.4999 29.0625C32.4999 28.1995 33.1994 27.5 34.0624 27.5H36.8749V24.6094C36.8749 23.7464 37.5744 23.0469 38.4374 23.0469C39.3005 23.0469 39.9999 23.7464 39.9999 24.6094ZM18.4375 16.9532C19.3005 16.9532 20 16.2537 20 15.3907V11.8751H21.5625C22.4255 11.8751 23.125 11.1756 23.125 10.3126V1.56258C23.125 0.680629 22.3944 -0.0304295 21.5054 0.00100352C20.6588 0.0312159 20 0.75265 20 1.60012V2.81258H18.4375C17.5744 2.81258 16.875 3.51204 16.875 4.37508C16.875 5.23811 17.5744 5.93758 18.4375 5.93758H20V8.75007H18.4375C17.5744 8.75007 16.875 9.44953 16.875 10.3126V15.3907C16.875 16.2537 17.5744 16.9532 18.4375 16.9532ZM1.5625 23.0469C2.42553 23.0469 3.12499 22.3475 3.12499 21.4844V19.9219H4.76561C5.62865 19.9219 6.32811 19.2225 6.32811 18.3594C6.32811 17.4964 5.62865 16.7969 4.76561 16.7969H1.5625C0.699461 16.7969 0 17.4964 0 18.3594V21.4844C0 22.3475 0.699461 23.0469 1.5625 23.0469ZM24.6874 19.9219H28.9062V24.5719C28.9062 25.4193 29.5651 26.1408 30.4116 26.171C31.3006 26.2024 32.0312 25.4914 32.0312 24.6094V23.0469H33.6718C34.5348 23.0469 35.2343 22.3475 35.2343 21.4844C35.2343 20.6214 34.5348 19.9219 33.6718 19.9219H32.0312V18.3594C32.0312 17.4964 31.3317 16.7969 30.4687 16.7969H24.6874C23.8244 16.7969 23.125 17.4964 23.125 18.3594C23.125 19.2225 23.8244 19.9219 24.6874 19.9219ZM38.4374 16.7969C37.5744 16.7969 36.8749 17.4964 36.8749 18.3594C36.8749 19.2225 37.5744 19.9219 38.4374 19.9219C39.3005 19.9219 39.9999 19.2225 39.9999 18.3594C39.9999 17.4964 39.3005 16.7969 38.4374 16.7969ZM24.6874 23.0469C23.8244 23.0469 23.125 23.7464 23.125 24.6094V27.5H22.3437C21.4807 27.5 20.7812 28.1995 20.7812 29.0625C20.7812 29.9256 21.4807 30.625 22.3437 30.625H24.6874C25.5505 30.625 26.2499 29.9256 26.2499 29.0625V24.6094C26.2499 23.7464 25.5505 23.0469 24.6874 23.0469ZM24.6874 36.875H23.125V35.3125C23.125 34.4495 22.4255 33.75 21.5625 33.75H20V32.1875C20 31.3245 19.3005 30.625 18.4375 30.625C17.5744 30.625 16.875 31.3245 16.875 32.1875V35.3125C16.875 36.1755 17.5744 36.875 18.4375 36.875H20V38.4375C20 39.3005 20.6994 40 21.5625 40H24.6874C25.5505 40 26.2499 39.3005 26.2499 38.4375C26.2499 37.5745 25.5505 36.875 24.6874 36.875ZM30.9374 33.75C30.9374 32.887 30.238 32.1875 29.3749 32.1875H28.5937C27.7307 32.1875 27.0312 32.887 27.0312 33.75C27.0312 34.6131 27.7307 35.3125 28.5937 35.3125H29.3749C30.238 35.3125 30.9374 34.6131 30.9374 33.75ZM38.4374 36.875H37.1874V35.3125C37.1874 34.4495 36.488 33.75 35.6249 33.75C34.7619 33.75 34.0624 34.4495 34.0624 35.3125V36.875H30.9374C30.0744 36.875 29.3749 37.5745 29.3749 38.4375C29.3749 39.3005 30.0744 40 30.9374 40H38.4374C39.3005 40 39.9999 39.3005 39.9999 38.4375C39.9999 37.5745 39.3005 36.875 38.4374 36.875ZM18.4375 25.9375C19.3005 25.9375 20 25.2381 20 24.375V21.4844C20 20.6214 19.3005 19.9219 18.4375 19.9219H12.8125V18.397C12.8125 17.5495 12.1536 16.8281 11.307 16.7978C10.4181 16.7664 9.68748 17.4775 9.68748 18.3594V19.9219H8.90623C8.0432 19.9219 7.34373 20.6214 7.34373 21.4844C7.34373 22.3475 8.0432 23.0469 8.90623 23.0469H16.875V24.375C16.875 25.2381 17.5744 25.9375 18.4375 25.9375ZM0 9.37507V4.68758C0 2.10274 2.10266 8.79873e-05 4.68749 8.79873e-05H9.37498C11.9598 8.79873e-05 14.0625 2.10274 14.0625 4.68758V9.37507C14.0625 11.9599 11.9598 14.0626 9.37498 14.0626H4.68749C2.10266 14.0626 0 11.9599 0 9.37507ZM3.12499 9.37507C3.12499 10.2366 3.82598 10.9376 4.68749 10.9376H9.37498C10.2365 10.9376 10.9375 10.2366 10.9375 9.37507V4.68758C10.9375 3.82607 10.2365 3.12508 9.37498 3.12508H4.68749C3.82598 3.12508 3.12499 3.82607 3.12499 4.68758V9.37507ZM7.03124 8.59382C7.89427 8.59382 8.59373 7.89436 8.59373 7.03132C8.59373 6.16829 7.89427 5.46883 7.03124 5.46883C6.1682 5.46883 5.46874 6.16829 5.46874 7.03132C5.46874 7.89436 6.1682 8.59382 7.03124 8.59382ZM39.9999 4.68758V9.37507C39.9999 11.9599 37.8973 14.0626 35.3124 14.0626H30.6249C28.0401 14.0626 25.9374 11.9599 25.9374 9.37507V4.68758C25.9374 2.10274 28.0401 8.79873e-05 30.6249 8.79873e-05H35.3124C37.8973 8.79873e-05 39.9999 2.10274 39.9999 4.68758ZM36.8749 4.68758C36.8749 3.82607 36.1739 3.12508 35.3124 3.12508H30.6249C29.7634 3.12508 29.0624 3.82607 29.0624 4.68758V9.37507C29.0624 10.2366 29.7634 10.9376 30.6249 10.9376H35.3124C36.1739 10.9376 36.8749 10.2366 36.8749 9.37507V4.68758ZM32.9687 5.46883C32.1056 5.46883 31.4062 6.16829 31.4062 7.03132C31.4062 7.89436 32.1056 8.59382 32.9687 8.59382C33.8317 8.59382 34.5312 7.89436 34.5312 7.03132C34.5312 6.16829 33.8317 5.46883 32.9687 5.46883ZM14.0625 30.625V35.3125C14.0625 37.8973 11.9598 40 9.37498 40H4.68749C2.10266 40 0 37.8973 0 35.3125V30.625C0 28.0402 2.10266 25.9375 4.68749 25.9375H9.37498C11.9598 25.9375 14.0625 28.0402 14.0625 30.625ZM10.9375 30.625C10.9375 29.7635 10.2365 29.0625 9.37498 29.0625H4.68749C3.82598 29.0625 3.12499 29.7635 3.12499 30.625V35.3125C3.12499 36.174 3.82598 36.875 4.68749 36.875H9.37498C10.2365 36.875 10.9375 36.174 10.9375 35.3125V30.625ZM7.03124 31.4063C6.1682 31.4063 5.46874 32.1057 5.46874 32.9688C5.46874 33.8318 6.1682 34.5313 7.03124 34.5313C7.89427 34.5313 8.59373 33.8318 8.59373 32.9688C8.59373 32.1057 7.89427 31.4063 7.03124 31.4063Z" fill="black"/>
</svg>
