<svg xmlns="http://www.w3.org/2000/svg" width="12" height="12" viewBox="0 0 12 12" fill="none">
<path d="M0 6C0 9.3162 2.68352 12 6 12C9.3162 12 12 9.31648 12 6C12 2.6838 9.31648 0 6 0C2.6838 0 0 2.68352 0 6ZM6.70997 2.77716C6.93087 2.77716 7.10998 2.95624 7.10998 3.17716L7.10998 5.56045L8.23308 5.56045C8.56788 5.56045 8.75159 5.94614 8.54845 6.20651L6.31537 9.06891C6.15518 9.27424 5.84445 9.2738 5.68463 9.06891L3.45157 6.20651C3.24736 5.94466 3.43395 5.56045 3.76695 5.56045H4.89005L4.89005 3.17714C4.89005 2.95624 5.06913 2.77713 5.29005 2.77713H6.70997V2.77716Z" fill="#34A853"/>
</svg>