<svg width="50" height="50" viewBox="0 0 50 50" fill="none" xmlns="http://www.w3.org/2000/svg">
<rect width="50" height="50" rx="25" fill="url(#paint0_linear_64_540)" fill-opacity="0.5"/>
<path d="M26.719 12.0808C28.1142 13.381 34.9077 19.7115 36.422 21.1226C37.3833 22.0184 37.383 23.4709 36.422 24.3665C35.4607 25.2623 33.9022 25.2623 32.941 24.3665L27.4613 19.26V36.2776C27.4613 37.5444 26.3594 38.5713 25 38.5713C23.6405 38.5713 22.5386 37.5444 22.5386 36.2776V19.26L17.0591 24.3664C16.0978 25.2622 14.5392 25.2622 13.5781 24.3664C12.6169 23.4706 12.6168 22.0182 13.5781 21.1225C14.9163 19.8755 21.9696 13.3027 23.2788 12.0827C24.2415 11.2065 25.7675 11.2148 26.719 12.0808Z" fill="white"/>
<defs>
<linearGradient id="paint0_linear_64_540" x1="0" y1="0" x2="50" y2="50" gradientUnits="userSpaceOnUse">
<stop stop-color="#5200FF"/>
<stop offset="0.35" stop-color="#772BFF"/>
<stop offset="1" stop-color="#010003"/>
</linearGradient>
</defs>
</svg>
