<svg xmlns="http://www.w3.org/2000/svg" width="12" height="12" viewBox="0 0 12 12" fill="none">
<path d="M12 6C12 2.6838 9.31648 0 6 0C2.6838 0 0 2.68352 0 6C0 9.3162 2.68352 12 6 12C9.3162 12 12 9.31648 12 6ZM5.29003 9.22284C5.06913 9.22284 4.89002 9.04376 4.89002 8.82284L4.89002 6.43955L3.76692 6.43955C3.43212 6.43955 3.24841 6.05386 3.45155 5.79349L5.68463 2.93109C5.84482 2.72576 6.15555 2.7262 6.31537 2.93109L8.54843 5.79349C8.75264 6.05534 8.56605 6.43955 8.23305 6.43955H7.10995L7.10995 8.82286C7.10995 9.04376 6.93087 9.22287 6.70995 9.22287H5.29003V9.22284Z" fill="#4285F4"/>
</svg>