<svg width="40" height="40" viewBox="0 0 40 40" fill="none" xmlns="http://www.w3.org/2000/svg">
<path d="M20 0C8.98758 0 0 8.98828 0 20C0 31.0124 8.98828 40 20 40C31.0124 40 40 31.0117 40 20C40 8.98758 31.0117 0 20 0ZM14.0666 3.37055C12.6987 5.11852 11.7113 7.28094 11.0295 9.375H5.90797C7.96648 6.65148 10.7949 4.54141 14.0666 3.37055ZM4.41039 11.718H10.3756C9.85344 13.9384 9.54523 16.3423 9.47125 18.8281H2.38359C2.55188 16.2729 3.26586 13.8646 4.41039 11.718ZM2.38359 21.1719H9.47125C9.5443 23.6287 9.84648 26.0052 10.3577 28.2031H4.36906C3.24875 26.077 2.54984 23.6962 2.38359 21.1719ZM5.84836 30.5469H11.0041C11.689 32.6723 12.6853 34.8643 14.0666 36.6295C10.7635 35.4473 7.91172 33.3084 5.84836 30.5469ZM18.8281 37.4558C16.2016 36.5655 14.4144 33.1613 13.4779 30.5469H18.8281V37.4558ZM18.8281 28.2031H12.767C12.2187 26.0359 11.8938 23.6533 11.8159 21.1719H18.8281V28.2031ZM18.8281 18.8281H11.8159C11.8948 16.3168 12.2267 13.9069 12.7871 11.7188H18.8281V18.8281ZM18.8281 9.375H13.5059C14.4434 6.78734 16.2223 3.42742 18.8281 2.54422V9.375ZM34.092 9.375H28.9705C28.2888 7.28141 27.3015 5.11883 25.9334 3.37055C29.2051 4.54141 32.0335 6.65148 34.092 9.375ZM21.1719 2.54422C23.778 3.42758 25.5569 6.78797 26.4941 9.375H21.1719V2.54422ZM21.1719 11.7188H27.2129C27.7732 13.9069 28.1052 16.3168 28.1841 18.8281H21.1719V11.7188ZM21.1719 21.1711H28.1841C28.1062 23.6533 27.7813 26.0359 27.233 28.2031H21.1719V21.1711ZM21.1719 37.4558V30.5461H26.5221C25.5863 33.1597 23.7991 36.5653 21.1719 37.4558ZM25.9334 36.6295C27.3148 34.8641 28.3111 32.672 28.9959 30.5461H34.1516C32.0883 33.3084 29.2365 35.4473 25.9334 36.6295ZM35.6309 28.2031H29.6424C30.1536 26.0052 30.4558 23.6287 30.5288 21.1711H37.6165C37.4502 23.6962 36.7512 26.077 35.6309 28.2031ZM37.6164 18.8281H30.5288C30.4548 16.3423 30.1466 13.9384 29.6244 11.7188H35.5896C36.7341 13.8646 37.4481 16.2729 37.6164 18.8281Z" fill="url(#paint0_linear_62_100)"/>
<defs>
<linearGradient id="paint0_linear_62_100" x1="0" y1="0" x2="40" y2="40" gradientUnits="userSpaceOnUse">
<stop stop-color="#5200FF"/>
<stop offset="0.34" stop-color="#772BFF"/>
<stop offset="1"/>
</linearGradient>
</defs>
</svg>
